# xmcd
#
# Track frame offsets:
# 183
# 7073
# 19773
# 47838
# 61435
# 80898
# 94910
# 111598
# 124738
# 146625
# 159460
# 174158
#
# Disc length: 2385 seconds
#
#
# Revision: 2
# Processed by: cddbd v1.5.1PL0 Copyright (c) Steve Scherf et al.
# Submitted via: FreeRIP 2.942 
#
DISCID=a6094f0c
DTITLE=T-Bone Walker - Good Feelin'
DYEAR=1900
DGENRE=
TTITLE0=Good Feelin'
TTITLE1=Every Day I Have the Blues
TTITLE2=Woman You Must Be Crazy
TTITLE3=Long Lost Lover
TTITLE4=I Wonder Why
TTITLE5=Vacation
TTITLE6=Shake It Baby
TTITLE7=Poontang
TTITLE8=Reconsider
TTITLE9=Sail On Little Girl
TTITLE10=When I Grow Up
TTITLE11=See You Next Time
EXTD=
EXTT0=
EXTT1=
EXTT2=
EXTT3=
EXTT4=
EXTT5=
EXTT6=
EXTT7=
EXTT8=
EXTT9=
EXTT10=
EXTT11=
PLAYORDER=
